<svg
xmlns:dc="http://purl.org/dc/elements/1.1/"
xmlns:cc="http://creativecommons.org/ns#"
xmlns:rdf="http://www.w3.org/1999/02/22-rdf-syntax-ns#"
xmlns:svg="http://www.w3.org/2000/svg"
xmlns="http://www.w3.org/2000/svg"
version="1.1"
width="250" 
height="46"
preserveAspectRatio="none slice"
id="svg2">
<title
id="title3044">Pratt &amp; Whitney UTC logo</title>
<defs
id="defs4">
<clipPath
id="clipPath3858">
<path
d="M 0,792 612,792 612,0.03 0,0.03 0,792 z"
id="path3860" />
</clipPath>
<clipPath
id="clipPath3820">
<path
d="M 0,792 612,792 612,0.03 0,0.03 0,792 z"
id="path3822" />
</clipPath>
<clipPath
id="clipPath3804">
<path
d="M 0,792 612,792 612,0.03 0,0.03 0,792 z"
id="path3806" />
</clipPath>
<clipPath
id="clipPath3786">
<path
d="M 0,792 612,792 612,0.03 0,0.03 0,792 z"
id="path3788" />
</clipPath>
<clipPath
id="clipPath3760">
<path
d="M 0,792 612,792 612,0.03 0,0.03 0,792 z"
id="path3762" />
</clipPath>
<clipPath
id="clipPath3734">
<path
d="M 0,792 612,792 612,0.03 0,0.03 0,792 z"
id="path3736" />
</clipPath>
<clipPath
id="clipPath3708">
<path
d="M 0,792 612,792 612,0.03 0,0.03 0,792 z"
id="path3710" />
</clipPath>
<clipPath
id="clipPath3666">
<path
d="M 0,792 612,792 612,0.03 0,0.03 0,792 z"
id="path3668" />
</clipPath>
<clipPath
id="clipPath3570">
<path
d="m 51.5,714 85.999,0 0,-86.957 -85.999,0 0,86.957 z"
id="path3572" />
</clipPath>
</defs>
<metadata
id="metadata7">
<rdf:RDF>
<cc:Work
rdf:about="">
<dc:format>image/svg+xml</dc:format>
<dc:type
rdf:resource="http://purl.org/dc/dcmitype/StillImage" />
<dc:title>Pratt &amp; Whitney UTC logo</dc:title>
<dc:creator>
<cc:Agent>
<dc:title>Pratt &amp; Whitney</dc:title>
</cc:Agent>
</dc:creator>
<dc:publisher>
<cc:Agent>
<dc:title>Pratt &amp; Whitney</dc:title>
</cc:Agent>
</dc:publisher>
<dc:date>2015-07-22</dc:date>
<dc:source>http://www.pw.utc.com/</dc:source>
</cc:Work>
</rdf:RDF>
</metadata>
<rect width="250" height="46" fill="white" stroke-width="0"/>
<g
transform="translate(14.968438,-180.59778)"
id="layer1">
<g
transform="matrix(1.3273768,0,0,1.3273768,146.19509,-164.12111)"
id="g4508">
<path
d="m -77.097967,282.66031 120.38875,0"
id="path3392"
style="fill:none;stroke:#231f20;stroke-width:0.5625;stroke-linecap:butt;stroke-linejoin:miter;stroke-miterlimit:4;stroke-opacity:1;stroke-dasharray:none" />
<path
d="m -97.630467,275.99281 c -0.05,-0.315 -0.1225,-0.62125 -0.21625,-0.91875 l 9.8925,-2.5225 c 0.10375,0.3 0.21,0.76875 0.26,1.0775 l -9.93625,2.36375 z m -0.91375,-2.41625 c 0.175,0.275 0.32875,0.56625 0.46125,0.8675 l 8.9725,-4.88375 c -0.1375,-0.31875 -0.38625,-0.77875 -0.585,-1.065 l -8.84875,5.08125 z m 7.04625,-7.55 c -0.2675,-0.32625 -0.6825,-0.775 -1.01625,-1.0575 l -7.29625,7.155 c 0.3275,0.27625 0.62625,0.58625 0.89125,0.92375 l 7.42125,-7.02125 z m -9.826253,5.1375 c 0.4325,0.19625 0.84125,0.43875 1.21625,0.72125 l 5.283753,-8.755 c -0.38125,-0.275 -0.93125,-0.61625 -1.36625,-0.8125 l -5.133753,8.84625 z m -1.67125,-0.49125 c 0.4975,0.075 0.97625,0.20625 1.42875,0.38875 l 2.772503,-9.85375 c -0.46,-0.1775 -1.095,-0.3525 -1.586253,-0.435 l -2.615,9.9 z m -0.0937,-10.26875 c -0.27625,-0.0263 -0.6225,-0.0425 -0.89625,-0.0425 -0.24625,0 -0.58875,0.0125 -0.8275,0.0375 l 0.0913,10.24875 c 0.2525,-0.03 0.50875,-0.045 0.76875,-0.045 0.2625,0 0.52125,0.015 0.775,0.0462 l 0.0888,-10.245 z m 5.268753,32.08375 -1.09,-3.91 0.135,-0.0512 2.14,3.4325 c 1.05125,-0.4725 2.08875,-1.1425 2.92875,-1.84625 l -1.95625,-3.14875 0.11125,-0.0937 2.7825,2.44625 c 0.93,-0.79125 1.7825,-1.79375 2.41625,-2.7475 l -2.55,-2.27125 0.07875,-0.12125 3.11125,1.40625 c 0.6875,-1.06625 1.25875,-2.315 1.5975,-3.54625 l -2.82125,-1.3075 0.03625,-0.14 3.08625,0.365 c 0.3325,-1.23 0.48125,-2.57375 0.46625,-3.92875 l -10.2025,0 c -0.0125,3.52625 -2.873753,6.38125 -6.402503,6.38125 -3.535,0 -6.40125,-2.86625 -6.40125,-6.4025 0,-3.2375 2.40375,-5.91375 5.52375,-6.34125 l -2.595,-9.92875 c -0.5525,0.0913 -1.2425,0.27125 -1.75375,0.47 l 2.57,9.295 -0.14125,0.0538 -4.77375,-8.37625 c -0.57125,0.2525 -1.21375,0.6375 -1.69625,0.9925 l 4.72125,7.8075 -0.115,0.09 -6.48625,-6.44 c -0.47875,0.39375 -1.04,0.9475 -1.41375,1.43 l 6.2625,5.96625 -0.095,0.11375 -7.505,-4.33375 c -0.4075,0.53625 -0.81625,1.2725 -1.08375,1.87875 l 7.1725,3.95 -0.0538,0.1375 -7.9075,-2.19625 c -0.25875,0.66625 -0.4925,1.5225 -0.60125,2.23 l 7.52625,1.84 -0.0262,0.15 -7.7675,0.004 c -0.025,0.37375 -0.0688,0.84625 -0.0688,1.22625 0,0.37 0.0413,0.8175 0.065,1.18125 l 7.31,-0.0625 0.015,0.14125 -7.0925,1.76875 c 0.13,0.84 0.34625,1.67125 0.645,2.4425 l 6.59,-1.8075 0.0563,0.13375 -5.97625,3.31 c 0.35625,0.79375 0.80125,1.56375 1.31125,2.28625 l 5.4225,-3.1375 0.09,0.11375 -4.49125,4.365 c 0.5625,0.70375 1.215,1.3525 1.92125,1.93125 l 4.0375,-3.995 0.11875,0.085 -2.88625,4.8925 c 0.76,0.55375 1.57375,1.03375 2.455,1.42375 l 2.6075,-4.4725 0.13625,0.055 -1.35125,4.99625 c 0.8875,0.35125 1.85,0.6 2.85375,0.75625 l 1.26,-4.62 0.14375,0.0225 0.03,4.77875 c 0.4625,0.0387 0.92625,0.08 1.3975,0.08 0.565,0 1.12375,-0.05 1.67375,-0.105 l 0.002,-4.4325 0.145,-0.02 1.21125,4.26125 c 1.135003,-0.17875 2.213753,-0.5075 3.135003,-0.905"
id="path3396"
style="fill:#0063a6;fill-opacity:1;fill-rule:nonzero;stroke:none" />
<g
transform="translate(-39.729748,-14.682732)"
id="g4375">
<path
d="m 15.126781,284.93679 c -0.14,1.80375 -0.74375,3.31125 -1.5925,4.3675 l 1.615,2.4 -3.4925,0 -0.45875,-0.78 c -0.36,0.3 -1.47875,1.08875 -3.37,1.08875 -2.57375,0.002 -4.3725,-1.48875 -4.3675,-4.1775 0.005,-2.19 1.87125,-3.4175 2.88625,-3.88125 -0.39875,-0.55375 -1.36625,-1.4525 -1.3625,-3.07375 0.005,-1.90375 1.47875,-3.0225 3.79,-3.0225 2.41,0 3.8575,1.415 3.865,3.16125 0.01,2.19625 -1.61875,3.125 -2.31375,3.5625 0.10375,0.17 1.34625,2.02125 1.34625,2.02125 l 0.03875,0 c 0.235,-0.38875 0.405,-1.1725 0.37125,-1.66625 l 3.045,0 z m -7.09875,1.15375 c -0.52125,0.235 -1.2325,0.8125 -1.2375,1.735 -0.0025,1.02125 0.67875,1.67 1.535,1.67 0.86625,0 1.3325,-0.405 1.54,-0.60875 l -1.8375,-2.79625 z m -0.0625,-5.05625 c 0.00125,0.53125 0.4075,1.005 0.84625,1.61625 0.57875,-0.28875 0.985,-0.84875 0.97625,-1.53125 -0.00625,-0.65875 -0.46625,-0.96375 -0.94875,-0.96625 -0.38875,-0.002 -0.875,0.275 -0.87375,0.88125"
id="path3400"
style="fill:#0063a6;fill-opacity:1;fill-rule:nonzero;stroke:none" />
<path
d="m 48.675531,291.70429 -3.30875,0 0,-10.08387 3.30875,0 0,10.08387 z m -3.30875,0 z m 0,-11.07375 0,-2.43125 3.30875,0 0,2.43125 -3.30875,0"
id="path3404"
style="fill:#0063a6;fill-opacity:1;fill-rule:nonzero;stroke:none" />
<path
d="m 50.020531,283.69679 0,-2.07 0.9275,0 0,-2.88125 3.2475,0 0,2.88125 1.37,0 0,2.07 -1.37,0 0,5.065 c 0,0.57625 0.365,0.8725 0.8975,0.87875 0.2,0.002 0.4725,0 0.4725,0 l 0,2.06875 c 0,0 -1.51,0 -1.8375,0 -1.75625,10e-4 -2.77875,-0.95875 -2.78,-2.56 l 0,-5.4525 -0.9275,0"
id="path3408"
style="fill:#0063a6;fill-opacity:1;fill-rule:nonzero;stroke:none" />
<path
d="m 71.290531,285.35179 c 0,-0.47375 0,-0.9975 0,-1.16125 0,-0.41375 -0.34125,-0.695 -0.705,-0.695 -0.41375,-0.001 -0.7075,0.3175 -0.7075,0.6975 0,0.1275 0,0.66 0,1.15875 l 1.4125,0 z m 3.00875,2.89625 0,0.37125 c -0.03625,2.02625 -1.195,3.41125 -3.71375,3.41125 -2.3175,0 -3.74875,-1.1775 -3.745,-3.4575 l 0,-3.78125 c -0.0037,-2.27875 1.43,-3.4575 3.745,-3.45625 2.55875,0 3.71625,1.38375 3.71625,3.45625 l 0,2.57625 -4.42375,0 0,1.805 c 0,0.38 0.29125,0.6975 0.7075,0.6975 0.3625,0 0.705,-0.28375 0.705,-0.6975 l 0,-0.925 3.00875,0"
id="path3412"
style="fill:#0063a6;fill-opacity:1;fill-rule:nonzero;stroke:none" />
<path
d="m 29.966781,287.50804 0.18375,0 c 0,0 0.17375,-3.365 0.32625,-4.7375 0.32,-2.8975 0.505,-4.57125 0.505,-4.57125 l 2.87125,0 -1.59875,13.51 -4.13,0 c 0,0 -0.53125,-2.65125 -0.84375,-4.16625 -0.2375,-1.1525 -0.575,-4.01 -0.575,-4.01 l -0.125,0 c 0,0 -0.34125,2.91875 -0.5525,4.00875 -0.3275,1.69375 -0.81875,4.1675 -0.81875,4.1675 l -4.04625,0 -1.76625,-13.51 3.12125,0 c 0,0 0.3425,3.15375 0.495,4.56 0.155,1.4275 0.3125,4.75 0.3125,4.75 l 0.18875,0 1.72,-9.31 3.0325,0 1.7,9.30875"
id="path3416"
style="fill:#0063a6;fill-opacity:1;fill-rule:nonzero;stroke:none" />
<path
d="m 38.530531,278.19179 0,4.02875 0.02625,0 c 0.34125,-0.37125 1.08125,-0.91125 2.11125,-0.9125 1.775,0 2.52125,1.21625 2.52625,2.69 0.0038,1.095 0,7.705 0,7.705 l -3.25,0 c 0,0 -0.0012,-6.5175 0,-7.0575 0,-0.53 -0.32625,-0.8 -0.6975,-0.79875 -0.325,0 -0.71625,0.25625 -0.715,0.76875 0,0.38875 0,7.0875 0,7.0875 l -3.25125,0 0,-13.51125 3.25,0"
id="path3420"
style="fill:#0063a6;fill-opacity:1;fill-rule:nonzero;stroke:none" />
<path
d="m 59.966781,281.62679 0.05875,0.90375 0.06625,0 c 0.285,-0.41375 1.055,-1.22 2.38125,-1.22 1.67375,-10e-4 2.52625,1.19625 2.53125,2.66875 0.0037,1.09375 0,7.73125 0,7.73125 l -3.25,0 c 0,0 0,-6.515 0,-7.055 0.0025,-0.53 -0.32625,-0.79875 -0.695,-0.7975 -0.32625,0 -0.71625,0.25625 -0.71625,0.76875 0.0012,0.3875 0,7.08375 0,7.08375 l -3.24875,0 0,-10.08375 2.8725,0"
id="path3424"
style="fill:#0063a6;fill-opacity:1;fill-rule:nonzero;stroke:none" />
<path
d="m 78.674281,284.84179 c 0.16,0.9875 0.46375,3.35 0.46375,3.35 l 0.155,0 c 0,0 0.28625,-2.37125 0.42625,-3.3525 0.15,-1.03625 0.47625,-3.23 0.47625,-3.23 l 2.98875,0 c 0,0 -1.7475,7.5 -2.38375,10.17125 -0.4275,1.79875 -1.7725,3.32625 -4.00375,3.32625 -0.7975,0 -1.01875,0 -1.01875,0 l 0,-2.045 c 0,0 0.25625,0 0.35875,0 0.7725,0 1.36,-0.26 1.5125,-1.07 l -2.63375,-10.3825 3.09125,0 c 0,0 0.40375,2.23 0.5675,3.2325"
id="path3428"
style="fill:#0063a6;fill-opacity:1;fill-rule:nonzero;stroke:none" />
<path
d="m -37.360719,291.70304 0,-13.505 c 0,0 3.2075,0 4.26625,0 2.91,0.001 4.2525,1.965 4.25,4.33 -0.0025,3.015 -1.8075,4.395 -4.0275,4.3925 -0.36625,-0.001 -1.1425,0 -1.1425,0 l 0,4.7825 -3.34625,0 z m 3.34625,-7.45125 c 0,0 0.4375,0 0.58375,0 0.9425,0 1.35875,-0.71875 1.36,-1.72375 0,-0.79875 -0.33125,-1.66 -1.34875,-1.66125 l -0.595,0 0,3.385"
id="path3432"
style="fill:#0063a6;fill-opacity:1;fill-rule:nonzero;stroke:none" />
<path
d="m -13.078219,283.69429 0,-2.07125 0.9275,0 0,-2.88125 3.2475,0 0,2.88125 1.36875,0 0,2.07125 -1.36875,0 0,5.065 c 0,0.575 0.365,0.87125 0.8975,0.87875 0.19875,0.002 0.47125,0 0.47125,0 l 0,2.06875 c 0,0 -1.51,0 -1.83625,0 -1.75625,10e-4 -2.78,-0.95875 -2.78,-2.56 l 0,-5.4525 -0.9275,0"
id="path3436"
style="fill:#0063a6;fill-opacity:1;fill-rule:nonzero;stroke:none" />
<path
d="m -6.5732194,283.69804 0,-2.07 0.92625,0 0,-2.88125 3.24875,0 0,2.88125 1.36875,0 0,2.07 -1.36875,0 0,5.065 c 0,0.57625 0.36375,0.8725 0.89625,0.87875 0.19875,0.002 0.4725,0 0.4725,0 l 0,2.07 c 0,0 -1.51,-0.001 -1.8375,0 -1.755,0 -2.78,-0.96 -2.78,-2.56 l 0,-5.45375 -0.92625,0"
id="path3440"
style="fill:#0063a6;fill-opacity:1;fill-rule:nonzero;stroke:none" />
<path
d="m -25.094469,281.61804 0.06,1.35 0.06625,0 c 0.355,-0.84125 1.3775,-1.49 2.4225,-1.57 l 0,3.28 c 0,0 -0.33125,10e-4 -0.4125,0 -1.035,0 -1.6425,0.6625 -1.64125,1.5525 l 0,5.47375 -3.2475,0 0,-10.08625 2.7525,0"
id="path3444"
style="fill:#0063a6;fill-opacity:1;fill-rule:nonzero;stroke:none" />
<path
d="m -17.176969,284.10804 c 0,-0.5325 -0.40375,-0.7675 -0.825,-0.7675 -0.45125,0 -0.8275,0.33125 -0.8275,0.885 0,0.18375 0,0.625 0,0.625 l -2.95125,0 c 0,0 0,-0.335 0,-0.48375 0.0013,-1.89125 1.58375,-3.06625 3.71875,-3.065 2.6025,0.001 3.83875,1.285 3.8375,3.37125 l 0,5.17125 c -0.0013,0.8975 0.1725,1.63 0.23375,1.85875 l -2.82125,0 -0.08875,-0.84125 -0.08,0 c -0.24875,0.25125 -0.9,1.14875 -2.4575,1.145 -1.48,-0.004 -2.61125,-1.0975 -2.6125,-2.60625 0,-0.12125 0,-0.3525 0,-0.47125 -0.005,-1.78625 1.56,-2.57625 3.0075,-3.2025 0.8225,-0.355 1.86625,-0.655 1.86625,-1.61875 z m -1.85125,4.65125 c 0,0.645 0.47375,0.9075 0.8475,0.9075 0.66125,0 1.0325,-0.5 1.0325,-1.15125 l 0,-1.59 c -0.70375,0.335 -1.88,0.72625 -1.88,1.83375"
id="path3448"
style="fill:#0063a6;fill-opacity:1;fill-rule:nonzero;stroke:none" />
</g>
<g
transform="translate(-39.729748,-14.682732)"
id="g4390">
<path
d="m -36.298219,303.71174 -0.55,1.53125 -0.7325,0 1.9775,-5.25875 0.80625,0 1.90375,5.25875 -0.77625,0 -0.52,-1.53125 -2.10875,0 z m 1.8525,-0.62875 -0.77625,-2.315 -0.015,0 -0.8425,2.315 1.63375,0"
id="path3452"
style="fill:#231f20;fill-opacity:1;fill-rule:nonzero;stroke:none" />
<path
d="m -26.296969,299.98429 0,3.4125 c 0,1.0775 -0.67375,1.985 -2.11625,1.985 -1.41375,0 -2.0225,-0.9075 -2.0225,-1.88875 l 0,-3.50875 0.71125,0 0,3.31 c 0,1.14375 0.695,1.4575 1.3325,1.4575 0.6525,0 1.385,-0.3 1.385,-1.4425 l 0,-3.325 0.71,0"
id="path3456"
style="fill:#231f20;fill-opacity:1;fill-rule:nonzero;stroke:none" />
<path
d="m -22.019469,305.24304 -0.645,0 0,-2.35875 c 0,-0.66625 -0.19,-1.0025 -0.82,-1.0025 -0.36625,0 -1.01125,0.23375 -1.01125,1.27375 l 0,2.0875 -0.64375,0 0,-3.83 0.6075,0 0,0.54125 0.015,0 c 0.13875,-0.205 0.4975,-0.65125 1.1575,-0.65125 0.5925,0 1.34,0.24125 1.34,1.3325 l 0,2.6075"
id="path3460"
style="fill:#231f20;fill-opacity:1;fill-rule:nonzero;stroke:none" />
<path
d="m -20.126969,305.24304 -0.645025,0 0,-3.83 0.645025,0 0,3.83 z m -0.645,-4.52625 0,-0.7325 0.645,0 0,0.7325 -0.645,0"
id="path3464"
style="fill:#231f20;fill-opacity:1;fill-rule:nonzero;stroke:none" />
<path
d="m -18.166969,301.94674 0,2.49125 c 0,0.3 0.25625,0.3 0.3875,0.3 l 0.2275,0 0,0.505 c -0.23375,0.0225 -0.4175,0.0512 -0.4825,0.0512 -0.6375,0 -0.7775,-0.35875 -0.7775,-0.82 l 0,-2.5275 -0.52,0 0,-0.53375 0.52,0 0,-1.07 0.645,0 0,1.07 0.615,0 0,0.53375 -0.615,0"
id="path3468"
style="fill:#231f20;fill-opacity:1;fill-rule:nonzero;stroke:none" />
<path
d="m -13.535719,304.04174 c -0.02125,0.18375 -0.1975,0.725 -0.68125,1.0475 -0.175,0.1175 -0.425,0.26375 -1.04,0.26375 -1.0775,0 -1.71375,-0.8125 -1.71375,-1.91875 0,-1.18625 0.57125,-2.13125 1.8375,-2.13125 1.1075,0 1.64875,0.87875 1.64875,2.23375 l -2.7975,0 c 0,0.7975 0.3725,1.26 1.11375,1.26 0.60625,0 0.96625,-0.46875 0.9875,-0.755 l 0.645,0 z m -0.615,-1.0175 c -0.03625,-0.59375 -0.285,-1.1425 -1.07,-1.1425 -0.5925,0 -1.06125,0.54875 -1.06125,1.1425 l 2.13125,0"
id="path3472"
style="fill:#231f20;fill-opacity:1;fill-rule:nonzero;stroke:none" />
<path
d="m -9.1919694,305.24304 -0.6075,0 0,-0.5275 -0.01375,0 c -0.2787496,0.52 -0.7187496,0.6375 -1.0912496,0.6375 -1.305,0 -1.685,-1.22375 -1.685,-2.13875 0,-1.07625 0.57875,-1.91125 1.59625,-1.91125 0.69625,0 0.98875,0.43125 1.1424996,0.65125 l 0.015,-0.0513 0,-1.91875 0.64375,0 0,5.25875 z m -1.6987496,-0.44625 c 0.41125,0 1.0474996,-0.27125 1.0474996,-1.29 0,-0.6225 -0.1025,-1.625 -1.0324996,-1.625 -0.99625,0 -1.0475,0.94375 -1.0475,1.435 0,0.8425 0.32875,1.48 1.0325,1.48"
id="path3476"
style="fill:#231f20;fill-opacity:1;fill-rule:nonzero;stroke:none" />
<path
d="m -6.8207194,299.98429 4.26875,0 0,0.63 -1.77875,0 0,4.62875 -0.71125,0 0,-4.62875 -1.77875,0 0,-0.63"
id="path3480"
style="fill:#231f20;fill-opacity:1;fill-rule:nonzero;stroke:none" />
<path
d="m 0.44803062,304.04174 c -0.02125,0.18375 -0.19625,0.725 -0.68,1.0475 -0.17625,0.1175 -0.425,0.26375 -1.04000002,0.26375 -1.0775,0 -1.71375,-0.8125 -1.71375,-1.91875 0,-1.18625 0.57125,-2.13125 1.8375,-2.13125 1.10625002,0 1.64875002,0.87875 1.64875002,2.23375 l -2.79875002,0 c 0,0.7975 0.37375,1.26 1.11375,1.26 0.60750002,0 0.96750002,-0.46875 0.98875002,-0.755 l 0.64375,0 z m -0.615,-1.0175 c -0.03625,-0.59375 -0.285,-1.1425 -1.06875002,-1.1425 -0.59375,0 -1.0625,0.54875 -1.0625,1.1425 l 2.13125002,0"
id="path3484"
style="fill:#231f20;fill-opacity:1;fill-rule:nonzero;stroke:none" />
<path
d="m 3.8667806,302.70174 c -0.08,-0.5125 -0.36625,-0.82 -0.90875,-0.82 -0.7975,0 -1.055,0.76125 -1.055,1.4425 0,0.65875 0.16125,1.4725 1.04875,1.4725 0.43125,0 0.805,-0.3225 0.915,-0.90875 l 0.6225,0 c -0.06625,0.6075 -0.43875,1.465 -1.56,1.465 -1.07625,0 -1.71375,-0.8125 -1.71375,-1.91875 0,-1.18625 0.57125,-2.13125 1.83875,-2.13125 1.0025,0 1.38375,0.7325 1.435,1.39875 l -0.6225,0"
id="path3488"
style="fill:#231f20;fill-opacity:1;fill-rule:nonzero;stroke:none" />
<path
d="m 8.5530306,305.24304 -0.64375,0 0,-2.505 c 0,-0.52 -0.1475,-0.85625 -0.7625,-0.85625 -0.5275,0 -1.06875,0.3075 -1.06875,1.27375 l 0,2.0875 -0.645,0 0,-5.25875 0.645,0 0,1.94125 0.01375,0 c 0.18375,-0.2425 0.505,-0.6225 1.12125,-0.6225 0.5925,0 1.34,0.24125 1.34,1.3325 l 0,2.6075"
id="path3492"
style="fill:#231f20;fill-opacity:1;fill-rule:nonzero;stroke:none" />
<path
d="m 12.828031,305.24304 -0.645,0 0,-2.35875 c 0,-0.66625 -0.19,-1.0025 -0.82,-1.0025 -0.36625,0 -1.01,0.23375 -1.01,1.27375 l 0,2.0875 -0.64625,0 0,-3.83 0.60875,0 0,0.54125 0.015,0 c 0.13875,-0.205 0.4975,-0.65125 1.15625,-0.65125 0.59375,0 1.34125,0.24125 1.34125,1.3325 l 0,2.6075"
id="path3496"
style="fill:#231f20;fill-opacity:1;fill-rule:nonzero;stroke:none" />
<path
d="m 15.543031,301.30304 c 1.2225,0 1.78,1.0325 1.78,2.02125 0,0.98875 -0.5575,2.02125 -1.78,2.02125 -1.22375,0 -1.78,-1.0325 -1.78,-2.02125 0,-0.98875 0.55625,-2.02125 1.78,-2.02125 z m 0,3.48625 c 0.9225,0 1.1125,-0.9525 1.1125,-1.465 0,-0.5125 -0.19,-1.465 -1.1125,-1.465 -0.9225,0 -1.11375,0.9525 -1.11375,1.465 0,0.5125 0.19125,1.465 1.11375,1.465"
id="path3500"
style="fill:#231f20;fill-opacity:1;fill-rule:nonzero;stroke:none" />
<path
d="m 18.273031,305.24304 0.64376,0 0,-5.25875 -0.64376,0 0,5.25875 z"
id="path3502"
style="fill:#231f20;fill-opacity:1;fill-rule:nonzero;stroke:none" />
<path
d="m 21.646781,301.30304 c 1.2225,0 1.78,1.0325 1.78,2.02125 0,0.98875 -0.5575,2.02125 -1.78,2.02125 -1.22375,0 -1.78125,-1.0325 -1.78125,-2.02125 0,-0.98875 0.5575,-2.02125 1.78125,-2.02125 z m 0,3.48625 c 0.9225,0 1.1125,-0.9525 1.1125,-1.465 0,-0.5125 -0.19,-1.465 -1.1125,-1.465 -0.92375,0 -1.11375,0.9525 -1.11375,1.465 0,0.5125 0.19,1.465 1.11375,1.465"
id="path3506"
style="fill:#231f20;fill-opacity:1;fill-rule:nonzero;stroke:none" />
<path
d="m 27.540531,304.92804 c 0,0.55 -0.0088,1.92625 -1.78,1.92625 -0.455,0 -1.34125,-0.12375 -1.465,-1.1425 l 0.645,0 c 0.11625,0.6075 0.71,0.6075 0.8625,0.6075 1.11375,0 1.09125,-0.8925 1.09125,-1.3475 l 0,-0.16125 -0.01375,0 0,0.03 c -0.16875,0.27125 -0.505,0.5125 -1.01875,0.5125 -1.3025,0 -1.68375,-1.22375 -1.68375,-2.13875 0,-1.07625 0.57875,-1.91125 1.59625,-1.91125 0.69625,0 0.98875,0.43125 1.1425,0.65125 l 0.015,0 0,-0.54125 0.60875,0 0,3.515 z m -1.6625,-0.13125 c 0.41,0 1.04625,-0.27125 1.04625,-1.29 0,-0.6225 -0.1025,-1.625 -1.0325,-1.625 -0.99625,0 -1.0475,0.94375 -1.0475,1.435 0,0.8425 0.33,1.48 1.03375,1.48"
id="path3510"
style="fill:#231f20;fill-opacity:1;fill-rule:nonzero;stroke:none" />
<path
d="m 29.295531,305.24304 -0.644987,0 0,-3.83 0.644987,0 0,3.83 z m -0.645,-4.52625 0,-0.7325 0.645,0 0,0.7325 -0.645,0"
id="path3514"
style="fill:#231f20;fill-opacity:1;fill-rule:nonzero;stroke:none" />
<path
d="m 33.716781,304.04174 c -0.0225,0.18375 -0.1975,0.725 -0.68125,1.0475 -0.175,0.1175 -0.425,0.26375 -1.03875,0.26375 -1.0775,0 -1.715,-0.8125 -1.715,-1.91875 0,-1.18625 0.57125,-2.13125 1.83875,-2.13125 1.105,0 1.6475,0.87875 1.6475,2.23375 l -2.7975,0 c 0,0.7975 0.37375,1.26 1.1125,1.26 0.60875,0 0.9675,-0.46875 0.98875,-0.755 l 0.645,0 z m -0.615,-1.0175 c -0.03625,-0.59375 -0.28625,-1.1425 -1.06875,-1.1425 -0.59375,0 -1.0625,0.54875 -1.0625,1.1425 l 2.13125,0"
id="path3518"
style="fill:#231f20;fill-opacity:1;fill-rule:nonzero;stroke:none" />
<path
d="m 36.915531,302.50424 c -0.0075,-0.2425 -0.09625,-0.645 -0.9075,-0.645 -0.19875,0 -0.7625,0.0663 -0.7625,0.5425 0,0.315 0.19625,0.3875 0.695,0.5125 l 0.64375,0.16125 c 0.8,0.1975 1.0775,0.49 1.0775,1.01 0,0.79125 -0.65125,1.2675 -1.51625,1.2675 -1.515,0 -1.625,-0.87875 -1.6475,-1.34 l 0.62375,0 c 0.02,0.3 0.10875,0.78375 1.01625,0.78375 0.4625,0 0.87875,-0.18375 0.87875,-0.60875 0,-0.3075 -0.21125,-0.41 -0.76125,-0.54875 l -0.74625,-0.18375 c -0.53625,-0.13125 -0.8875,-0.4025 -0.8875,-0.93 0,-0.8425 0.69625,-1.2225 1.45125,-1.2225 1.37,0 1.465,1.01 1.465,1.20125 l -0.6225,0"
id="path3522"
style="fill:#231f20;fill-opacity:1;fill-rule:nonzero;stroke:none" />
<path
d="m 44.256781,301.56674 c -0.19875,-0.92375 -0.9675,-1.09125 -1.47375,-1.09125 -0.95125,0 -1.72,0.7025 -1.72,2.0875 0,1.2375 0.44,2.18875 1.7425,2.18875 0.46125,0 1.26,-0.21875 1.5025,-1.4425 l 0.6875,0 c -0.2925,1.985 -1.90375,2.0725 -2.29875,2.0725 -1.19375,0 -2.36625,-0.77625 -2.36625,-2.7975 0,-1.61875 0.9225,-2.73875 2.4525,-2.73875 1.35625,0 2.05875,0.8425 2.16125,1.72125 l -0.6875,0"
id="path3526"
style="fill:#231f20;fill-opacity:1;fill-rule:nonzero;stroke:none" />
<path
d="m 47.534281,301.30304 c 1.22375,0 1.78125,1.0325 1.78125,2.02125 0,0.98875 -0.5575,2.02125 -1.78125,2.02125 -1.2225,0 -1.78,-1.0325 -1.78,-2.02125 0,-0.98875 0.5575,-2.02125 1.78,-2.02125 z m 0,3.48625 c 0.9225,0 1.11375,-0.9525 1.11375,-1.465 0,-0.5125 -0.19125,-1.465 -1.11375,-1.465 -0.9225,0 -1.1125,0.9525 -1.1125,1.465 0,0.5125 0.19,1.465 1.1125,1.465"
id="path3530"
style="fill:#231f20;fill-opacity:1;fill-rule:nonzero;stroke:none" />
<path
d="m 50.249281,301.41304 0.60875,0 0,0.54125 0.01375,0 c 0.14,-0.205 0.46875,-0.65125 1.1575,-0.65125 0.68875,0 0.90875,0.4175 1.0175,0.6225 0.32375,-0.35875 0.57875,-0.6225 1.1725,-0.6225 0.41,0 1.18625,0.2125 1.18625,1.28875 l 0,2.65125 -0.64375,0 0,-2.475 c 0,-0.5275 -0.16125,-0.88625 -0.71,-0.88625 -0.54375,0 -0.90125,0.5125 -0.90125,1.025 l 0,2.33625 -0.645,0 0,-2.65125 c 0,-0.3225 -0.12375,-0.71 -0.60125,-0.71 -0.365,0 -1.01,0.23375 -1.01,1.27375 l 0,2.0875 -0.645,0 0,-3.83"
id="path3534"
style="fill:#231f20;fill-opacity:1;fill-rule:nonzero;stroke:none" />
<path
d="m 56.500531,301.41304 0.6075,0 0,0.54125 0.01625,0 c 0.15375,-0.22 0.44625,-0.65125 1.1425,-0.65125 1.0175,0 1.595,0.835 1.595,1.91125 0,0.915 -0.38,2.13875 -1.68375,2.13875 -0.5125,0 -0.84875,-0.24125 -1.0175,-0.5125 l -0.015,0 0,1.91875 -0.645,0 0,-5.34625 z m 1.6625,3.38375 c 0.70375,0 1.0325,-0.6375 1.0325,-1.48 0,-0.49125 -0.05,-1.435 -1.04625,-1.435 -0.93,0 -1.03375,1.0025 -1.03375,1.625 0,1.01875 0.6375,1.29 1.0475,1.29"
id="path3538"
style="fill:#231f20;fill-opacity:1;fill-rule:nonzero;stroke:none" />
<path
d="m 60.731781,302.57674 c 0.02875,-0.915 0.6375,-1.27375 1.58125,-1.27375 0.30875,0 1.4225,0.0875 1.4225,1.06875 l 0,2.205 c 0,0.16125 0.08,0.22625 0.2125,0.22625 0.0575,0 0.13875,-0.0138 0.21125,-0.0288 l 0,0.46875 c -0.11,0.0288 -0.205,0.0737 -0.35125,0.0737 -0.57125,0 -0.65875,-0.29375 -0.68125,-0.58625 -0.24875,0.27125 -0.6375,0.6225 -1.38375,0.6225 -0.70375,0 -1.20125,-0.44625 -1.20125,-1.10625 0,-0.3225 0.095,-1.06875 1.16375,-1.20125 l 1.0625,-0.13125 c 0.15375,-0.015 0.33625,-0.0738 0.33625,-0.455 0,-0.4025 -0.2925,-0.6225 -0.9,-0.6225 -0.7325,0 -0.835,0.4475 -0.88,0.74 l -0.5925,0 z m 2.35875,0.71125 c -0.10375,0.08 -0.26375,0.13875 -1.0625,0.24125 -0.315,0.0437 -0.82,0.13875 -0.82,0.6225 0,0.4175 0.2125,0.66625 0.695,0.66625 0.60125,0 1.1875,-0.3875 1.1875,-0.9 l 0,-0.63"
id="path3542"
style="fill:#231f20;fill-opacity:1;fill-rule:nonzero;stroke:none" />
<path
d="m 68.149281,305.24304 -0.645,0 0,-2.35875 c 0,-0.66625 -0.19125,-1.0025 -0.82,-1.0025 -0.36625,0 -1.01125,0.23375 -1.01125,1.27375 l 0,2.0875 -0.645,0 0,-3.83 0.60875,0 0,0.54125 0.01375,0 c 0.14,-0.205 0.49875,-0.65125 1.15875,-0.65125 0.5925,0 1.34,0.24125 1.34,1.3325 l 0,2.6075"
id="path3546"
style="fill:#231f20;fill-opacity:1;fill-rule:nonzero;stroke:none" />
<path
d="m 71.541781,301.41304 0.71125,0 c -0.4475,1.2525 -0.88625,2.505 -1.3775,3.75625 -0.6075,1.55375 -0.67375,1.64125 -1.50125,1.64125 -0.095,0 -0.16875,-0.0288 -0.27,-0.0587 l 0,-0.58625 c 0.08,0.03 0.21125,0.0662 0.3875,0.0662 0.3375,0 0.37375,-0.095 0.68125,-0.88625 l -1.42125,-3.9325 0.7325,0 1.01875,3.12 0.01375,0 1.025,-3.12"
id="path3550"
style="fill:#231f20;fill-opacity:1;fill-rule:nonzero;stroke:none" />
</g>
</g>
</g>
</svg>
